<svg width="16" height="18" viewBox="0 0 16 18" fill="none" xmlns="http://www.w3.org/2000/svg">
<path fill-rule="evenodd" clip-rule="evenodd" d="M7.81859 11.3017C7.87238 11.3153 7.92777 11.3234 7.98156 11.3234L7.97995 11.325C8.24327 11.325 8.48572 11.1508 8.55957 10.8858C8.65029 10.5647 8.46324 10.2324 8.14212 10.1408C7.49587 9.95861 6.94274 9.57728 6.54295 9.03539C6.06689 8.39075 5.8686 7.6 5.98902 6.80523C6.10864 6.01367 6.5293 5.31444 7.17315 4.83838L10.007 2.74469C11.338 1.76046 13.2222 2.04465 14.2056 3.37408C14.6809 4.01873 14.8784 4.81108 14.7596 5.60425C14.6399 6.39661 14.2193 7.09584 13.5746 7.57109L12.3865 8.45016C12.1184 8.64764 12.0622 9.02496 12.2597 9.29309C12.4571 9.56042 12.8353 9.61742 13.1026 9.41993L14.2907 8.54167C15.1955 7.87295 15.7855 6.89354 15.9525 5.78166C16.1195 4.66979 15.8425 3.55953 15.1762 2.65478C13.7954 0.78908 11.1558 0.394104 9.29172 1.7717L6.45785 3.86539C5.55391 4.53412 4.96466 5.51353 4.79767 6.6254C4.63069 7.73727 4.90685 8.84754 5.57478 9.75068C6.13513 10.5101 6.91143 11.0464 7.81859 11.3017ZM0.824646 15.3245C1.64992 16.4404 2.92396 17.0304 4.21646 17.0304L4.21565 17.0288C5.08428 17.0288 5.95932 16.7615 6.70833 16.2051L9.5422 14.1115C11.4079 12.7323 11.8037 10.0927 10.4253 8.22697C9.86492 7.46752 9.08942 6.93126 8.18227 6.67597C7.86275 6.58927 7.52879 6.77391 7.43888 7.09503C7.34816 7.41615 7.53521 7.7485 7.85633 7.83922C8.50258 8.02065 9.05571 8.40278 9.4555 8.94386C10.4389 10.2765 10.1563 12.1591 8.8253 13.1425L5.99304 15.2362C4.6604 16.2196 2.77785 15.9362 1.79442 14.606C1.31836 13.9613 1.12168 13.1706 1.24049 12.3758C1.36011 11.5843 1.77997 10.885 2.42462 10.409L3.61275 9.52991C3.88089 9.33242 3.93548 8.9543 3.73879 8.68697C3.54211 8.41964 3.16399 8.36344 2.89586 8.56013L1.70933 9.43839C0.804576 10.1071 0.214521 11.0873 0.0475398 12.1984C-0.119442 13.3095 0.15672 14.4197 0.824646 15.3245Z" fill="#8A98A4"/>
</svg>
