<svg width="22" height="20" viewBox="0 0 22 20" fill="none" xmlns="http://www.w3.org/2000/svg">
<path d="M21.3088 2.90255H19.077V0.684994C19.077 0.306877 18.7678 0 18.3868 0C18.0058 0 17.6966 0.306877 17.6966 0.684994V2.90255H15.4648C15.0838 2.90255 14.7745 3.20851 14.7745 3.58754C14.7745 3.96657 15.0838 4.27254 15.4648 4.27254H17.6975V6.48644C17.6975 6.86455 18.0067 7.17143 18.3877 7.17143C18.7687 7.17143 19.078 6.86455 19.078 6.48644V4.27254H21.3098C21.6917 4.27254 22 3.96475 22 3.58754C22 3.21034 21.6908 2.90255 21.3098 2.90255H21.3088ZM15.5752 9.8493C15.5936 7.62627 14.8555 5.65074 13.4971 4.28715C12.2786 3.06147 10.6294 2.38378 8.85316 2.37556H8.8412C7.06497 2.38469 5.41575 3.06055 4.19724 4.28624C2.83976 5.65166 2.10166 7.62718 2.12007 9.85021C2.1532 13.625 0.350285 15.0498 0.27942 15.1046C0.0401355 15.2808 -0.0583393 15.5886 0.0346135 15.8699C0.128487 16.1512 0.39354 16.3403 0.689885 16.3403H5.03014C5.13137 18.3734 6.81557 20 8.88998 20C10.9644 20 12.6477 18.3743 12.7498 16.3403H17.0063C17.3008 16.3403 17.5622 16.1522 17.657 15.8745C17.7518 15.5969 17.657 15.2872 17.4223 15.1091C17.3468 15.0507 15.5421 13.625 15.5743 9.84839L15.5752 9.8493ZM8.88906 18.63C7.57667 18.63 6.5091 17.6162 6.4097 16.3394H11.3684C11.269 17.618 10.2014 18.6291 8.88906 18.6291V18.63ZM2.17989 14.9703C2.82596 13.9702 3.5208 12.318 3.49964 9.83926C3.48399 7.95598 4.06471 6.36862 5.17923 5.24979C6.13913 4.28532 7.44139 3.75194 8.84764 3.74646C10.253 3.75285 11.5562 4.28532 12.5151 5.24979C13.6287 6.36953 14.2085 7.95598 14.1929 9.83926C14.1726 12.318 14.8666 13.9702 15.5154 14.9703H2.17989Z" fill="#4BA0EC"/>
</svg>
